<svg data-v-423bf9ae="" xmlns="http://www.w3.org/2000/svg" viewBox="0 0 205.35624713473015 163" class="iconAbove"><!----><!----><!----><g data-v-423bf9ae="" id="f3a046bd-81f7-404d-abfc-e5ec89f84b58" fill="black" transform="matrix(3.6855035300593095,0,0,3.6855035300593095,-1.6584755853820496,104.43734676166369)"><path d="M1.90 2.86C1.90 1.39 2.91 0.67 3.85 0.57L1.62 10.43C1.78 10.54 2.04 10.61 2.37 10.61C2.88 10.61 3.43 10.37 3.57 9.72L4.45 5.57C4.86 5.66 5.25 5.81 5.67 5.81C6.40 5.81 6.78 5.10 6.44 4.66C5.87 4.94 5.31 4.76 4.63 4.69L5.42 1.02C6.13 1.34 6.90 1.72 7.46 1.72C8.47 1.72 9.14 0.87 8.83-0.39C7.22 0.32 5.88-0.28 4.33-0.28C3.00-0.28 0.45 0.21 0.45 2.51C0.45 3.18 0.87 3.81 1.60 3.81C1.78 3.81 1.97 3.77 2.18 3.67C1.99 3.44 1.90 3.09 1.90 2.86ZM10.19 3.37C8.08 3.37 6.61 6.02 6.61 8.13C6.61 9.45 7.22 10.61 8.67 10.61C10.86 10.61 12.36 7.97 12.36 5.88C12.36 4.51 11.72 3.37 10.19 3.37ZM10.50 4.44C11.07 4.44 11.31 5.01 11.31 5.77C11.31 7.24 10.42 9.39 9.31 9.39C8.82 9.39 8.40 8.92 8.40 7.69C8.40 6.31 9.23 4.44 10.50 4.44ZM16.53 3.37C14.42 3.37 12.95 6.02 12.95 8.13C12.95 9.45 13.57 10.61 15.01 10.61C17.21 10.61 18.70 7.97 18.70 5.88C18.70 4.51 18.06 3.37 16.53 3.37ZM16.84 4.44C17.42 4.44 17.65 5.01 17.65 5.77C17.65 7.24 16.76 9.39 15.65 9.39C15.16 9.39 14.74 8.92 14.74 7.69C14.74 6.31 15.57 4.44 16.84 4.44ZM24.46 10.61C25.21 10.61 26.22 9.97 26.88 9.23C26.96 9.13 27.01 9.02 27.01 8.92C27.01 8.78 26.92 8.65 26.77 8.58C26.42 8.93 25.82 9.28 25.30 9.28C24.93 9.28 24.71 9.03 24.88 8.25L26.35 1.27C26.46 0.74 26.18 0.50 25.68 0.50C24.92 0.50 23.91 1.18 23.91 1.50C23.91 1.61 23.93 1.75 24.12 1.93C24.35 1.67 24.61 1.75 24.53 2.13L24.18 3.77C23.84 3.50 23.41 3.37 22.83 3.37C20.89 3.37 19.31 5.81 19.31 8.26C19.31 9.16 19.60 10.61 21.06 10.61C21.85 10.61 22.60 10.02 23.18 9.20C23.17 10.30 23.80 10.61 24.46 10.61ZM23.21 8.29C22.83 8.81 22.25 9.17 21.80 9.17C21.36 9.17 21.04 8.86 21.04 8.16C21.04 6.64 21.64 4.42 23.34 4.42C23.55 4.42 23.77 4.47 24.01 4.55L23.21 8.30ZM26.73 7.92C26.45 9.23 26.53 10.60 27.92 10.60C28.62 10.60 29.25 10.14 29.79 9.45C29.68 9.83 29.60 10.18 29.50 10.51C27.17 11.55 25.27 12.39 25.27 14.17C25.27 15.33 26.18 15.89 26.96 15.89C29.46 15.89 30.49 13.13 31.14 10.53C32.13 10.07 33.08 9.44 33.33 9.21C33.57 9.00 33.53 8.69 33.32 8.51C32.83 8.93 32.09 9.35 31.32 9.73C31.36 9.55 31.40 9.35 31.44 9.16L32.63 3.61C32.47 3.50 32.23 3.43 31.98 3.43C31.47 3.43 30.94 3.67 30.80 4.31L29.89 8.50C29.57 8.81 29.22 9.00 28.81 9.00C28.35 9.00 28.24 8.67 28.34 8.23L29.20 4.20C29.33 3.67 29.04 3.43 28.53 3.43C27.94 3.43 27.44 3.72 26.96 4.10C26.68 4.33 26.78 4.76 26.96 4.87C27.09 4.76 27.17 4.70 27.24 4.70C27.37 4.70 27.44 4.83 27.38 5.05ZM26.98 14.64C26.80 14.64 26.40 14.48 26.40 13.99C26.40 12.92 27.55 12.25 29.22 11.44C28.50 13.69 27.94 14.64 26.98 14.64ZM40.94 10.61C41.87 10.61 42.81 9.97 43.47 9.23C43.55 9.13 43.60 9.02 43.60 8.92C43.60 8.78 43.51 8.65 43.36 8.58C43.01 8.93 42.41 9.28 41.89 9.28C41.61 9.28 41.43 9.11 41.51 8.71L42.20 5.49C42.55 3.84 41.58 3.43 40.88 3.43C40.17 3.43 39.55 3.95 39.02 4.70L39.75 1.27C39.86 0.74 39.58 0.50 39.07 0.50C38.32 0.50 37.31 1.18 37.31 1.50C37.31 1.61 37.32 1.75 37.52 1.93C37.74 1.67 38.01 1.75 37.93 2.13L36.15 10.47C36.32 10.58 36.48 10.61 36.74 10.61C37.24 10.61 37.77 10.37 37.91 9.73L38.79 5.75C39.17 5.31 39.59 5.01 40.10 5.01C40.56 5.01 40.53 5.39 40.43 5.84L39.84 8.62C39.49 10.26 40.24 10.61 40.94 10.61ZM43.32 7.92C43.08 8.97 43.08 10.61 44.63 10.61C45.43 10.61 46.12 9.94 46.68 9.03C46.61 10.26 47.29 10.61 47.98 10.61C48.73 10.61 49.74 9.97 50.40 9.23C50.48 9.13 50.53 9.02 50.53 8.92C50.53 8.78 50.44 8.65 50.29 8.58C49.94 8.93 49.34 9.28 48.82 9.28C48.45 9.28 48.23 9.03 48.40 8.25L49.38 3.61C49.21 3.50 48.97 3.43 48.72 3.43C48.22 3.43 47.68 3.67 47.54 4.31L46.70 8.27C46.33 8.72 45.91 9.00 45.42 9.00C45.00 9.00 44.81 8.75 44.94 8.18L45.79 4.20C45.92 3.67 45.63 3.43 45.12 3.43C44.53 3.43 44.03 3.72 43.55 4.10C43.27 4.33 43.37 4.76 43.55 4.87C43.68 4.76 43.76 4.70 43.83 4.70C43.96 4.70 44.03 4.83 43.97 5.05ZM50.33 6.82C49.87 8.97 50.25 10.61 51.77 10.61C53.86 10.61 56.17 7.99 56.17 5.61C56.17 4.27 55.50 3.43 54.42 3.43C53.86 3.43 53.21 3.68 52.50 4.52L53.16 1.27C53.27 0.74 52.99 0.50 52.49 0.50C51.73 0.50 50.72 1.18 50.72 1.50C50.72 1.61 50.74 1.75 50.93 1.93C51.16 1.67 51.42 1.75 51.34 2.13ZM54.40 5.92C54.40 7.56 53.51 9.17 52.51 9.17C52.15 9.17 51.83 8.97 51.83 8.18C51.83 7.85 51.88 7.34 52.26 5.68C52.65 5.18 53.20 4.84 53.65 4.84C54.08 4.84 54.40 5.15 54.40 5.92Z"></path></g><!----><g data-v-423bf9ae="" id="b08658e7-188e-4776-944e-d7a478aad34a" transform="matrix(1.913509515251004,0,0,1.913509515251004,55.61435421867932,-2.3541845997658513)" stroke="none" fill="black"><path clip-rule="evenodd" d="M3.454 11.686C5.106 8.38 5.712 6.561 7.973 3.588c-.219-.387-.44-.829-.66-1.27-.112-.936.55-.936 1.266-.714.332.438.605.881.938 1.322 3.69.164 7.163.331 10.854.55-1.707.551-2.478 1.379-2.862 2.26-2.647 1.103-3.914 2.26-4.244 3.472-2.592.222-4.465 1.046-5.569 2.533-2.148-.661-2.038-1.045-4.242-.055z"></path><path clip-rule="evenodd" d="M16.59 13.435l-6.116-8.541a.5.5 0 0 0-.814.582l6.116 8.541a.5.5 0 0 0 .814-.582z"></path><path clip-rule="evenodd" d="M5.106 14.056c3.31 4.904 6.835 10.195 10.14 15.044-.442 1.047.167 1.65.881 1.65 0 3.805.057 7.605.057 11.41-.606.273-.938.66-1.047 1.322-.826 0-1.432.439-1.708 1.156-.662.385-1.157 1.377-2.424.936-2.922 2.813 8.926 4.299 12.674 1.268.495-.33.055-1.432-.827-1.486-.771.109-1.433-.109-1.818-.717-.387-.662-.993-1.049-1.93-1.156-.273-.441-.551-1.102-.99-1.322 0-3.748.054-7.662.054-11.41 1.103 0 1.158-1.266.718-1.65 3.361-4.849 6.832-9.862 10.193-14.714-8.102.882-16.312 1.543-23.973-.331zM17.396 14.114c5.51 0 9.975-.334 9.975-.774s-4.465-.771-9.975-.771c-5.564 0-10.029.33-10.029.771s4.464.774 10.029.774z"></path><g clip-rule="evenodd"><path d="M28.306 21.662c2.535 3.689 5.182 7.712 7.715 11.462-.33.77.166 1.266.662 1.266 0 2.865.055 5.787.055 8.652-.44.221-.717.496-.771.99-.661 0-1.102.332-1.323.881-.494.277-.878 1.051-1.817.719-2.259 2.148 6.777 3.305 9.643.99.386-.273 0-1.1-.66-1.156-.606.109-1.049-.109-1.378-.553-.276-.494-.716-.768-1.434-.881-.221-.273-.44-.824-.771-.99 0-2.865.054-5.787.054-8.652.829 0 .884-.992.552-1.266 2.536-3.693 5.181-7.55 7.715-11.243-6.174.717-12.4 1.212-18.242-.219zM37.674 21.495c4.244 0 7.659-.273 7.659-.606 0-.329-3.415-.605-7.659-.605-4.187 0-7.604.276-7.604.605 0 .332 3.417.606 7.604.606z"></path></g></g><!----></svg>